<?xml version="1.0" encoding="utf-8"?>
<!-- Generator: Adobe Illustrator 23.0.2, SVG Export Plug-In . SVG Version: 6.00 Build 0)  -->
<svg version="1.1" id="ensign_logo" xmlns="http://www.w3.org/2000/svg" xmlns:xlink="http://www.w3.org/1999/xlink" x="0px" y="0px"
	 viewBox="0 0 462.72 188.14" style="enable-background:new 0 0 462.72 188.14;" xml:space="preserve">
<style type="text/css">
	.st0{fill:#020202;}
</style>
<path class="st0" d="M387.46,61.38c1.39-2.11,2.89-4.02,4.71-5.67c3.09-2.79,6.68-4.63,10.72-5.62c2.39-0.58,4.82-0.78,7.25-0.78
	c4.09,0,8.14,0.37,12.04,1.78c5.43,1.96,9.03,5.72,11.03,11.09c1.3,3.5,1.87,7.14,2.17,10.84c0.14,1.78,0.13,3.55,0.13,5.33
	c0,15.68,0,31.36,0,47.04c0,1.41,0,1.41-1.42,1.41c-7.52,0-15.04,0-22.56,0c-0.87,0-0.87,0-0.87-0.85c0-13.4,0-26.8-0.01-40.2
	c0-3.22-0.17-6.43-0.74-9.61c-0.24-1.34-0.51-2.67-1.14-3.9c-1.08-2.12-2.88-3.27-5.14-3.76c-2.88-0.62-5.72-0.51-8.5,0.53
	c-2.46,0.92-4.13,2.68-5.24,5.01c-1.06,2.23-1.54,4.61-1.82,7.05c-0.36,3.19-0.33,6.38-0.33,9.58c0,11.58,0,23.16,0,34.74
	c0,0.16,0,0.32,0,0.48c0.02,0.94,0.02,0.94-0.89,0.94c-7.62,0-15.24,0-22.86,0c-0.88,0-0.88,0-0.88-0.9c0-24.64,0-49.28,0-73.92
	c0-0.98,0.03-0.82,0.85-0.82c7.58,0.01,15.16,0,22.74-0.03c0.55,0,0.67,0.21,0.67,0.71c-0.02,2.94-0.01,5.88-0.01,8.82
	C387.37,60.87,387.32,61.09,387.46,61.38z"/>
<path class="st0" d="M227.03,70.77c-0.33,0.05-0.62,0.1-0.72-0.37c-0.88-3.96-3.45-6.11-7.36-6.82c-2.35-0.43-4.69-0.42-7.03,0.03
	c-1.66,0.32-3.17,1-4.32,2.29c-1.61,1.8-2.24,5.09,0.34,7.14c0.67,0.54,1.37,1.03,2.13,1.44c2.69,1.46,5.58,2.4,8.53,3.16
	c4.61,1.18,9.16,2.58,13.7,4c3.18,1,6.37,2,9.42,3.38c3.43,1.55,6.17,3.91,8.21,7.05c1.55,2.38,2.38,5.05,2.67,7.88
	c0.34,3.21,0.2,6.39-0.57,9.53c-0.83,3.38-2.37,6.4-4.65,9.03c-2.96,3.42-6.67,5.75-10.82,7.42c-4.38,1.76-8.97,2.59-13.65,3.02
	c-3.87,0.35-7.75,0.36-11.62,0.1c-5.33-0.35-10.56-1.26-15.52-3.34c-4.8-2.02-8.98-4.88-12.11-9.12c-2.17-2.95-3.5-6.27-4.15-9.86
	c-0.15-0.81-0.23-1.62-0.35-2.43c-0.07-0.47,0.14-0.67,0.6-0.63c0.2,0.01,0.4,0,0.6,0c7.04,0,14.08,0,21.12-0.01
	c0.66,0,1.31,0.13,1.98,0.03c0.51-0.08,0.51,0.32,0.54,0.66c0.11,1.44,0.54,2.79,1.22,4.05c1.19,2.21,3.07,3.63,5.43,4.35
	c4.19,1.28,8.42,1.36,12.62,0c1.69-0.55,3.14-1.52,4.13-3.03c0.93-1.41,1.33-2.96,0.74-4.62c-0.45-1.29-1.48-2.1-2.6-2.8
	c-2.45-1.54-5.17-2.42-7.94-3.17c-3.18-0.86-6.4-1.61-9.54-2.62c-5.66-1.82-11.26-3.79-16.4-6.84c-3.32-1.97-6.14-4.46-7.88-8
	c-1-2.05-1.57-4.23-1.74-6.51c-0.2-2.78-0.06-5.56,0.64-8.27c1.1-4.27,3.32-7.83,6.68-10.71c4.35-3.73,9.44-5.76,14.99-6.81
	c3.78-0.72,7.6-1,11.45-0.94c4.84,0.07,9.66,0.46,14.38,1.61c3.99,0.97,7.81,2.39,11.18,4.79c4.45,3.16,7.22,7.45,8.34,12.8
	c0.21,1,0.44,1.99,0.47,3.02c-0.23,0.11-0.47,0.05-0.71,0.05c-7.27,0-14.54,0-21.8,0.01C227.46,70.7,227.23,70.63,227.03,70.77z"/>
<path class="st0" d="M253.9,51.46c-0.06-0.45,0.29-0.28,0.48-0.28c5.54-0.01,11.08,0,16.61,0c2.36,0,4.72-0.02,7.08-0.04
	c0.36,0,0.46,0.14,0.46,0.46c0,0.46,0,0.92,0,1.38c0,24.27,0,48.54,0,72.81c0,0.16-0.01,0.32,0,0.48c0.02,0.37-0.13,0.57-0.52,0.55
	c-0.14-0.01-0.28,0-0.42,0c-7.6,0-15.19,0-22.79-0.01c-0.29,0-0.6,0.07-0.88-0.11c0.13-0.2,0.06-0.43,0.06-0.64
	c0-24.65,0-49.3,0-73.95C253.98,51.88,254.06,51.65,253.9,51.46z"/>
<path class="st0" d="M296.01,133.15c3.88,0,7.76,0.01,11.64-0.01c0.49,0,0.74,0.14,0.91,0.63c0.97,2.79,2.94,4.54,5.75,5.39
	c2.65,0.8,5.36,0.82,8.08,0.59c2.6-0.21,5.09-0.79,7.27-2.33c1.36-0.96,2.35-2.22,2.97-3.75c0.17-0.41,0.39-0.53,0.81-0.53
	c7.74,0.01,15.48,0.01,23.22,0c0.51,0,0.65,0.12,0.55,0.65c-0.68,3.44-1.72,6.74-3.69,9.68c-2.54,3.78-5.87,6.67-9.87,8.81
	c-3.41,1.82-7.04,3.03-10.82,3.81c-2.37,0.49-4.77,0.81-7.18,0.96c-1.99,0.13-3.99,0.24-5.99,0.21c-5.83-0.08-11.62-0.56-17.24-2.25
	c-4.72-1.42-9.03-3.58-12.44-7.25c-2.04-2.19-3.54-4.73-4.63-7.51c-0.8-2.06-1.34-4.19-1.68-6.36c-0.11-0.74-0.1-0.74,0.64-0.75
	C288.21,133.15,292.11,133.16,296.01,133.15z"/>
<path class="st0" d="M430.1,147.34c-1.35,0.13-2.64-0.2-3.84-0.86c-0.93-0.51-1.57-1.27-1.95-2.27c-0.14-0.37-0.12-0.59,0.36-0.65
	c0.49-0.06,0.98-0.2,1.46-0.33c0.32-0.09,0.54-0.04,0.67,0.3c0.36,0.97,1.12,1.42,2.08,1.6c1.16,0.22,2.3,0.27,3.36-0.39
	c0.7-0.44,0.83-1.08,0.71-1.82c-0.11-0.67-0.54-1.07-1.15-1.25c-0.99-0.3-2-0.55-3-0.83c-0.44-0.12-0.88-0.27-1.32-0.39
	c-2.53-0.7-3.31-3.96-1.94-5.96c0.86-1.26,2.15-1.82,3.61-2c1.8-0.22,3.46,0.16,4.92,1.27c0.45,0.35,0.76,0.82,1,1.33
	c0.14,0.3,0.13,0.53-0.28,0.6c-0.29,0.05-0.58,0.16-0.87,0.24c-0.65,0.18-1.15,0.27-1.65-0.48c-0.76-1.14-3.21-1.19-4.19-0.24
	c-0.71,0.69-0.62,1.75,0.19,2.33c0.47,0.33,1.01,0.47,1.55,0.61c1.14,0.31,2.3,0.51,3.41,0.93c1.62,0.61,2.47,1.81,2.59,3.49
	c0.12,1.7-0.62,3.01-2.09,3.9C432.62,147.16,431.41,147.41,430.1,147.34z"/>
<path class="st0" d="M365.96,147.34c-1.25,0.07-2.41-0.21-3.53-0.77c-0.98-0.49-1.64-1.25-2.07-2.24c-0.19-0.44-0.17-0.74,0.39-0.79
	c0.12-0.01,0.24-0.04,0.35-0.07c0.89-0.3,1.63-0.42,2.13,0.73c0.34,0.79,1.26,0.9,2.07,1.01c0.99,0.14,1.96,0.13,2.85-0.4
	c0.57-0.33,0.95-0.83,0.9-1.52c-0.06-0.74-0.41-1.36-1.17-1.59c-1.03-0.31-2.09-0.55-3.12-0.85c-0.95-0.28-1.9-0.54-2.7-1.21
	c-1.57-1.33-1.69-4.92,0.74-6.33c2.25-1.31,5.58-1.08,7.41,0.6c0.39,0.36,0.7,0.76,0.88,1.26c0.1,0.28,0.03,0.46-0.27,0.53
	c-0.58,0.14-1.16,0.29-1.74,0.45c-0.36,0.1-0.43-0.17-0.57-0.39c-0.81-1.32-3.3-1.62-4.41-0.53c-0.77,0.75-0.69,1.75,0.21,2.35
	c0.64,0.43,1.4,0.57,2.14,0.74c0.87,0.21,1.75,0.41,2.6,0.7c1.51,0.52,2.5,1.51,2.71,3.11c0.25,1.9-0.38,3.42-2.1,4.4
	C368.51,147.19,367.28,147.46,365.96,147.34z"/>
<path class="st0" d="M417.24,141.08c0-1.82-0.01-3.64,0.01-5.46c0.01-0.48-0.15-0.68-0.65-0.67c-0.88,0.03-1.76-0.01-2.64,0.01
	c-0.41,0.01-0.57-0.16-0.56-0.57c0.04-2.08-0.28-1.7,1.62-1.72c2.72-0.02,5.44,0.01,8.16-0.01c0.55,0,0.86,0.11,0.72,0.73
	c-0.01,0.06-0.01,0.12,0,0.18c0.03,1.38,0.03,1.38-1.37,1.38c-0.58,0-1.16,0.03-1.74-0.01c-0.57-0.04-0.77,0.16-0.76,0.74
	c0.03,2.42,0.01,4.84,0.01,7.26c0,1.24,0,2.48,0.03,3.72c0.01,0.43-0.15,0.56-0.56,0.53c-0.56-0.03-1.12-0.03-1.68-0.01
	c-0.45,0.02-0.59-0.17-0.58-0.61C417.25,144.76,417.25,142.92,417.24,141.08z"/>
<path class="st0" d="M253.9,51.46c0.27,0.19,0.14,0.48,0.14,0.72c0.01,19.21,0.01,38.42,0.01,57.63c0,5.32,0,10.63,0,15.95
	c0,0.32,0.06,0.64-0.12,0.94c-0.01-0.46-0.02-0.92-0.02-1.38C253.9,100.69,253.9,76.08,253.9,51.46z"/>
<path class="st0" d="M358.32,116.72c-0.15-0.24-0.12-0.5-0.12-0.76c0-21.26,0-42.51,0-63.77c0-0.26-0.02-0.52,0.13-0.76
	c0.01,0.26,0.02,0.52,0.02,0.78c0,21.28,0,42.57,0,63.85C358.35,116.28,358.33,116.5,358.32,116.72z"/>
<path class="st0" d="M178.33,126.68c-0.16-0.25-0.12-0.54-0.12-0.82c0-16.71,0-33.43,0-50.14c0-0.26-0.03-0.52,0.12-0.76
	c0.01,0.24,0.02,0.48,0.02,0.72c0,16.84,0,33.68,0,50.53C178.34,126.37,178.33,126.53,178.33,126.68z"/>
<path class="st0" d="M106.05,95.6c0.19,0.22,0.16,0.49,0.16,0.74c0,9.86,0,19.73,0,29.59c0,0.26,0.03,0.52-0.13,0.76
	c-0.01-0.46-0.02-0.92-0.02-1.38C106.06,115.41,106.05,105.5,106.05,95.6z"/>
<path class="st0" d="M106.07,51.3c0.17,0.25,0.14,0.54,0.14,0.81c0,9.74,0,19.49,0,29.23c0,0.28,0.04,0.56-0.13,0.82
	C106.07,71.87,106.07,61.59,106.07,51.3z"/>
<path class="st0" d="M227.03,70.77c0.21-0.14,0.46-0.13,0.7-0.13c7.49,0,14.97,0,22.46,0.01c-0.13,0.16-0.32,0.14-0.5,0.14
	C242.13,70.78,234.58,70.77,227.03,70.77z"/>
<path class="st0" d="M178.27,126.04c0-16.81,0-33.62,0-50.43c0-0.22-0.05-0.44,0.06-0.65c-0.02-0.68-0.01-1.36-0.06-2.03
	c-0.3-3.47-0.79-6.91-1.97-10.21c-0.92-2.58-2.18-4.97-4.06-7c-2.64-2.87-5.98-4.48-9.71-5.39c-3.38-0.82-6.81-1.04-10.28-0.99
	c-3.25,0.05-6.41,0.53-9.46,1.65c-4.67,1.72-8.4,4.7-11.3,8.74c-0.37,0.52-0.74,1.04-1.14,1.6c-0.17-0.33-0.11-0.57-0.11-0.81
	c0-2.8,0-5.6,0-8.4c0-0.96,0-0.96-0.95-0.96c-7.58,0-15.15,0-22.73,0c-0.17,0-0.37-0.07-0.49,0.13c0.1,0.23,0.08,0.47,0.08,0.71
	c0,9.86,0,19.71,0,29.57c0,0.19,0.06,0.4-0.07,0.58c-0.17-0.08-0.19-0.24-0.22-0.4c-0.99-5.44-2.78-10.58-5.71-15.29
	c-2.5-4.02-5.67-7.43-9.47-10.24c-5.15-3.8-10.99-6-17.28-7.03c-4.31-0.71-8.65-0.92-13.02-0.67c-3.9,0.23-7.75,0.76-11.53,1.77
	c-6.29,1.68-11.89,4.64-16.67,9.09c-5.25,4.9-8.61,10.91-10.36,17.84c-0.95,3.76-1.33,7.6-1.41,11.46
	c-0.08,3.62,0.23,7.23,0.95,10.79c1.56,7.72,5.12,14.32,10.97,19.65c3.43,3.12,7.32,5.48,11.63,7.16
	c5.02,1.97,10.26,2.91,15.62,3.12c3.17,0.13,6.35,0.07,9.52-0.17c4.46-0.34,8.85-1.03,13.13-2.36c4.14-1.28,8.01-3.09,11.46-5.73
	c3.27-2.5,5.91-5.53,7.87-9.16c1.19-2.21,2.09-4.53,2.76-6.95c0.15-0.54-0.02-0.7-0.53-0.67c-0.12,0.01-0.24,0-0.36,0
	c-9.24,0-18.48,0-27.71,0c-0.36-0.03-0.41,0.27-0.51,0.49c-1,2.19-2.68,3.64-4.9,4.51c-2.63,1.03-5.37,1.12-8.13,0.87
	c-1.78-0.16-3.43-0.74-4.99-1.58c-1.8-0.97-3.07-2.46-4.14-4.15c-0.16-0.25-0.26-0.56-0.61-0.61c-0.2-0.23-0.33-0.5-0.45-0.78
	c-0.86-2.01-1.26-4.11-1.41-6.28c-0.09-1.25-0.11-1.25,1.13-1.25c18.11,0,36.23,0,54.34,0c0.2,0.18,0.09,0.41,0.09,0.62
	c0.01,9.94,0.01,19.88,0,29.83c0,0.21,0.06,0.44-0.06,0.64c0.27,0.18,0.58,0.11,0.88,0.11c7.58,0.01,15.16,0.01,22.74,0.01
	c1,0,1,0,1-0.97c0-13.14,0-26.27,0-39.41c0-1.28,0.01-2.55,0.12-3.83c0.24-2.67,0.6-5.32,1.64-7.83c1.19-2.89,3.13-5,6.15-5.97
	c2.59-0.83,5.24-0.89,7.88-0.33c1.67,0.36,3.18,1.08,4.3,2.43c1.04,1.26,1.51,2.76,1.84,4.31c0.75,3.64,0.95,7.33,0.96,11.03
	c0.04,13.22,0.01,26.43,0.01,39.65c0,0.91,0,0.91,0.88,0.91c7.7,0,15.4,0,23.1,0c0.25,0,0.52,0.06,0.75-0.12
	C178.21,126.48,178.27,126.25,178.27,126.04z M76.44,80.48c-4.18,0-8.36,0-12.54,0c-4.22,0-8.44,0-12.66,0c-0.41,0-0.77,0-0.72-0.58
	c0.18-2.06,0.52-4.08,1.33-6c1.95-4.63,6.15-7.41,11.18-7.46c2.14-0.02,4.24,0.13,6.25,0.89c3.78,1.42,6,4.23,7.11,8.02
	c0.41,1.41,0.64,2.85,0.8,4.3C77.3,80.45,77.26,80.48,76.44,80.48z"/>
<path class="st0" d="M358.27,116.08c0-21.33,0-42.66,0-64c0-0.21-0.06-0.44,0.06-0.64c0.04-0.41-0.26-0.32-0.48-0.31
	c-0.56,0.01-1.12,0.05-1.68,0.05c-6.54,0-13.08,0-19.62,0c-0.22,0-0.45,0.04-0.66-0.02c-0.62-0.15-0.75,0.13-0.74,0.69
	c0.02,2.86,0.01,5.72,0,8.58c0,0.19,0.08,0.4-0.09,0.56c-0.19-0.03-0.27-0.19-0.36-0.31c-0.77-1-1.57-1.96-2.43-2.89
	c-3.09-3.33-6.75-5.79-11.09-7.2c-3.11-1.01-6.32-1.36-9.57-1.44c-1.74-0.04-3.47,0.11-5.19,0.34c-3.66,0.49-7.1,1.64-10.25,3.53
	c-5.07,3.03-8.8,7.35-11.62,12.5c-3.23,5.92-4.72,12.34-5.14,19c-0.24,3.83-0.2,7.67,0.3,11.5c0.76,5.85,2.39,11.42,5.47,16.5
	c3.52,5.82,8.22,10.33,14.6,12.92c2.14,0.87,4.32,1.46,6.69,1.38c3.34-0.11,6.68-0.04,10.02-0.02c1.11,0.01,2.17-0.15,3.25-0.45
	c5.48-1.51,9.78-4.69,13.24-9.13c0.41-0.52,0.79-1.06,1.19-1.59c0.13,0.24,0.13,0.43,0.13,0.63c-0.06,3.24,0.1,6.48-0.09,9.71
	c-0.05,0.81-0.02,0.82,0.78,0.82c7.12,0,14.24,0,21.36,0c0.38,0,0.76-0.01,1.14,0c0.39,0.01,0.59-0.14,0.6-0.56
	c0.12-3.17,0.29-6.34,0.24-9.52C358.21,116.52,358.27,116.29,358.27,116.08z M333.96,88.35c0.06,3.15-0.24,6.08-1.09,8.94
	c-0.76,2.57-1.95,4.91-3.83,6.84c-1.91,1.96-4.25,3.14-6.96,3.59c-2.07,0.34-4.14,0.37-6.19-0.11c-3.46-0.8-6-2.86-7.83-5.87
	c-1.52-2.49-2.33-5.2-2.77-8.05c-0.34-2.22-0.44-4.46-0.34-6.69c0.16-3.67,0.65-7.29,2.2-10.68c2.08-4.56,5.53-7.27,10.58-7.84
	c2.65-0.3,5.23-0.01,7.7,1.02c2.23,0.93,3.94,2.47,5.24,4.48c1.88,2.91,2.65,6.18,3.04,9.57C333.9,85.22,334.02,86.87,333.96,88.35z
	"/>
<path class="st0" d="M410.95,85.96c0,13.51,0,27.03,0,40.54c-0.03,0-0.06,0-0.09,0c0-13.51,0-27.03,0-40.54
	C410.89,85.96,410.92,85.96,410.95,85.96z"/>
<path class="st0" d="M410.03,141.4c-0.11-0.29-0.31-0.57,0.14-0.8c1.59-0.79,2.26-2.09,2.2-3.85c-0.06-1.78-0.99-3.15-2.68-3.72
	c-0.73-0.24-1.48-0.34-2.24-0.35c-1.9-0.01-3.8,0.01-5.7-0.02c-0.56-0.01-0.72,0.19-0.72,0.73c0.02,2.18,0.01,4.36,0.01,6.54
	c0,2.16,0,4.32,0,6.48c0,0.79,0,0.79,0.81,0.79c0.42,0,0.84-0.02,1.26,0c0.37,0.02,0.53-0.09,0.52-0.5
	c-0.01-1.62,0.02-3.24,0.03-4.86c0-0.3,0-0.56,0.43-0.55c0.82,0.02,1.64,0.05,2.45-0.01c0.65-0.04,0.91,0.28,1.11,0.82
	c0.55,1.52,1.14,3.03,1.7,4.55c0.15,0.39,0.37,0.58,0.8,0.55c0.48-0.03,0.96-0.01,1.44-0.01c0.74,0,0.74-0.01,0.48-0.68
	C411.39,144.81,410.71,143.11,410.03,141.4z M408.02,138.99c-1.32,0.29-2.67,0.1-4,0.12c-0.27,0-0.37-0.18-0.37-0.44
	c0.01-1.16,0.01-2.32,0-3.48c0-0.29,0.1-0.38,0.38-0.38c0.6,0.02,1.2,0.01,1.8,0.01c0,0.01,0,0.01,0,0.02c0.6,0,1.2-0.03,1.8,0.01
	c1.13,0.07,1.93,0.84,2.03,1.91C409.77,137.84,409.15,138.74,408.02,138.99z"/>
<path class="st0" d="M398.12,136.72c-0.52-1.54-1.4-2.86-2.89-3.59c-3.64-1.78-7.34,0.02-8.53,3.97c-0.71,2.36-0.53,4.72,0.52,7.01
	c1.79,3.91,6.65,4.17,9.18,1.8c1.77-1.66,2.19-3.83,2.24-6.12C398.64,138.73,398.45,137.7,398.12,136.72z M395.19,143.45
	c-0.56,1.2-1.52,1.84-2.85,1.82c-1.31-0.02-2.21-0.72-2.63-1.91c-0.83-2.34-0.82-4.71,0.08-7.03c0.48-1.23,1.49-1.76,2.81-1.72
	c1.27,0.04,2.09,0.67,2.57,1.81c0.52,1.22,0.61,2.51,0.59,3.82C395.78,141.34,395.66,142.43,395.19,143.45z"/>
<path class="st0" d="M381.1,132.79c-2.11-0.25-4.24-0.04-6.35-0.12c-0.54-0.02-0.73,0.16-0.72,0.72c0.03,2.18,0.01,4.36,0.01,6.54
	c0,2.22,0.01,4.44-0.01,6.66c0,0.47,0.16,0.65,0.62,0.62c0.46-0.03,0.92-0.03,1.38,0c0.5,0.03,0.66-0.17,0.65-0.66
	c-0.02-1.36-0.01-2.72-0.01-4.08c0-1.02,0.01-1.01,1.03-1.03c1.24-0.03,2.48,0.14,3.71-0.1c2.25-0.45,3.63-2.23,3.54-4.52
	C384.89,134.65,383.37,133.05,381.1,132.79z M380.52,139.13c-1.15,0.18-2.31-0.01-3.47,0.07c-0.3,0.02-0.36-0.2-0.36-0.44
	c0-0.56,0-1.12,0-1.68c0,0,0,0,0,0c0-0.52,0.01-1.04,0-1.56c-0.01-0.39,0.12-0.6,0.55-0.59c1.04,0.02,2.08-0.02,3.12,0.03
	c1.09,0.05,1.82,0.85,1.86,1.96C382.25,138.08,381.58,138.96,380.52,139.13z"/>
</svg>